<?xml version="1.0" encoding="UTF-8"?>
<svg version="1.1" xmlns="http://www.w3.org/2000/svg" width="1472" height="448">
<path d="M0 0 C485.76 0 971.52 0 1472 0 C1472 147.84 1472 295.68 1472 448 C986.24 448 500.48 448 0 448 C0 300.16 0 152.32 0 0 Z " fill="#FEFEFE" transform="translate(0,0)"/>
<path d="M0 0 C2.36662605 2.36662605 2.39981087 3.32591441 2.8515625 6.5703125 C2.98046875 7.46621094 3.109375 8.36210937 3.2421875 9.28515625 C3.36851562 10.22230469 3.49484375 11.15945313 3.625 12.125 C3.82609375 13.54232422 3.82609375 13.54232422 4.03125 14.98828125 C4.3616356 17.32457945 4.6842175 19.66169071 5 22 C5.825 21.31035156 6.65 20.62070312 7.5 19.91015625 C13.77536099 14.76397372 20.1347771 10.03415067 27.1875 6 C28.11079102 5.4587146 28.11079102 5.4587146 29.05273438 4.90649414 C38.00043655 -0.04167886 47.31076218 -1.56479475 57.4375 -1.5 C58.94256104 -1.49468262 58.94256104 -1.49468262 60.47802734 -1.48925781 C70.65768572 -1.26139198 78.23785712 1.15178685 86 8 C87.9140625 10.40234375 87.9140625 10.40234375 89.625 12.9375 C90.47964844 14.18853516 90.47964844 14.18853516 91.3515625 15.46484375 C92.96298578 17.94307528 94.49734911 20.45460046 96 23 C96.391875 22.61070312 96.78375 22.22140625 97.1875 21.8203125 C115.04445829 5.11789893 135.37516558 -1.8301801 159.50683594 -1.13183594 C170.21723047 -0.56548135 178.77396771 3.4156954 186.25 11.0625 C192.02226574 18.24969439 195.10873504 28.58197834 195.13803101 37.73692322 C195.14348434 38.66068253 195.14893768 39.58444183 195.15455627 40.53619385 C195.1555986 41.53737244 195.15664093 42.53855103 195.15771484 43.57006836 C195.16279556 44.6340535 195.16787628 45.69803864 195.17311096 46.79426575 C195.18379992 49.10177224 195.19242586 51.40928901 195.19923019 53.71681023 C195.21103252 57.36925019 195.23048788 61.02157263 195.25234985 64.67396545 C195.31392925 75.05758766 195.36804723 85.44119673 195.40136719 95.82495117 C195.42230324 102.17855014 195.45759478 108.53193291 195.50212479 114.8854084 C195.51628945 117.30587789 195.52500826 119.7263856 195.52817917 122.14689445 C195.53308376 125.53167258 195.55622997 128.91587569 195.58349609 132.30053711 C195.58048996 133.29969147 195.57748383 134.29884583 195.5743866 135.32827759 C195.63782264 140.62698687 195.99174393 144.43518279 199 149 C200.87053661 150.48919916 200.87053661 150.48919916 203 151.3125 C203.680625 151.61800781 204.36125 151.92351562 205.0625 152.23828125 C206.68879187 152.87765003 208.34221355 153.44740452 210 154 C210 154.99 210 155.98 210 157 C185.58 157 161.16 157 136 157 C136 156.01 136 155.02 136 154 C136.68707031 153.70867187 137.37414062 153.41734375 138.08203125 153.1171875 C138.98308594 152.70726562 139.88414062 152.29734375 140.8125 151.875 C141.70582031 151.48054687 142.59914063 151.08609375 143.51953125 150.6796875 C146.84143928 148.43020647 147.55828852 146.7684141 149 143 C149.43126065 139.35059246 149.40995503 135.72829704 149.38818359 132.05688477 C149.39344055 130.96509918 149.39869751 129.8733136 149.40411377 128.7484436 C149.41729772 125.1459515 149.40858038 121.54390272 149.3984375 117.94140625 C149.40045883 115.43326228 149.40337077 112.92511889 149.40713501 110.41697693 C149.41155632 105.16229752 149.40542111 99.90773292 149.39111328 94.65307617 C149.37479654 88.5908935 149.38007089 82.52901372 149.3965925 76.46683842 C149.41188482 70.62021605 149.41021759 64.77370815 149.4014473 58.92707634 C149.39944832 56.44600316 149.40189393 53.96492224 149.40888596 51.48385811 C149.41651981 48.01320164 149.40486785 44.54312328 149.38818359 41.07250977 C149.39729263 39.53944939 149.39729263 39.53944939 149.40658569 37.97541809 C149.34574699 31.1306297 148.51611073 26.21021024 144.1875 20.6875 C138.01989243 15.92963131 130.39809649 16.44603625 123 17 C113.79277856 18.63353929 105.32307997 24.43129607 98 30 C98.21156612 31.00807599 98.21156612 31.00807599 98.42740631 32.03651714 C99.72514529 38.60226746 100.29436173 44.8339654 100.28710938 51.5168457 C100.29394241 52.50367844 100.30077545 53.49051117 100.30781555 54.50724792 C100.32129978 56.62801692 100.33041919 58.74881746 100.33552551 60.86962318 C100.34388129 64.22855834 100.3644437 67.58723024 100.38806152 70.9460907 C100.44419489 79.27929084 100.47970929 87.61255466 100.51568604 95.94586182 C100.546951 103.00948522 100.58613512 110.07297784 100.63594055 117.13649559 C100.65596533 120.44130088 100.66431659 123.74600435 100.67224121 127.05085754 C100.68521331 129.07728446 100.69873358 131.10370797 100.71289062 133.13012695 C100.71190872 134.04504913 100.71092682 134.95997131 100.70991516 135.90261841 C100.75596035 140.6366967 101.04918312 144.59196732 103 149 C104.69712207 150.30859649 104.69712207 150.30859649 107 151 C108.25244373 151.53599205 109.5023102 152.07803296 110.75 152.625 C111.8225 153.07875 112.895 153.5325 114 154 C114 154.99 114 155.98 114 157 C89.58 157 65.16 157 40 157 C40 156.01 40 155.02 40 154 C40.60328125 153.75765625 41.2065625 153.5153125 41.828125 153.265625 C47.01099139 151.0921649 51.36781049 149.26437903 54 144 C54.10067565 142.48504183 54.13940813 140.96575905 54.14717102 139.44747925 C54.15432632 138.48866348 54.16148163 137.52984772 54.16885376 136.54197693 C54.17154266 135.48640091 54.17423157 134.43082489 54.17700195 133.34326172 C54.18357315 132.23415939 54.19014435 131.12505707 54.19691467 129.98234558 C54.21668497 126.29812559 54.22831984 122.61394647 54.23828125 118.9296875 C54.24235678 117.67276218 54.2464323 116.41583687 54.25063133 115.12082291 C54.26935523 109.15247998 54.28391557 103.18415008 54.2922433 97.21578491 C54.30200162 90.33617774 54.32828146 83.45689354 54.36874419 76.57740009 C54.40261857 70.61229735 54.41439476 64.6472731 54.41844749 58.68207169 C54.42331752 56.14877257 54.43494325 53.615477 54.45348549 51.08224106 C54.47785029 47.53226877 54.47691593 43.9831359 54.4699707 40.43310547 C54.48278076 39.38967484 54.49559082 38.3462442 54.50878906 37.27119446 C54.46457802 31.05872603 53.70733506 26.12642406 50 21 C44.13304924 16.11087437 38.40044835 16.38006715 31 17 C23.64731001 17.75898735 18.00083809 20.77365457 12 25 C10.9743544 25.63700333 9.9487088 26.27400665 8.89198303 26.93031311 C6.85685361 28.65699314 6.09148314 29.62861336 5.44758415 32.24259758 C5.23833498 35.12569981 5.22389519 37.95499304 5.27124023 40.84545898 C5.2655452 41.93870483 5.25985016 43.03195068 5.25398254 44.1583252 C5.24286998 47.77157181 5.27495372 51.38300797 5.30859375 54.99609375 C5.3121706 57.50805956 5.31352833 60.02002944 5.3127594 62.53199768 C5.31745222 67.79701693 5.34157354 73.06157082 5.38256836 78.32641602 C5.42971801 84.40396442 5.44556336 90.48094375 5.4433617 96.55866188 C5.44152694 102.41547704 5.45720667 108.27210186 5.48173714 114.12886238 C5.49128001 116.61633249 5.49719536 119.10381926 5.49941826 121.59130669 C5.505929 125.06954138 5.53220475 128.54706487 5.56420898 132.02514648 C5.56216965 133.56595634 5.56216965 133.56595634 5.56008911 135.13789368 C5.63194331 140.4831558 5.91798563 144.41983756 9 149 C11.43210956 150.75455028 11.43210956 150.75455028 14.1875 151.875 C15.08855469 152.28492188 15.98960937 152.69484375 16.91796875 153.1171875 C17.94857422 153.55417969 17.94857422 153.55417969 19 154 C19 154.99 19 155.98 19 157 C-5.75 157 -30.5 157 -56 157 C-56 156.01 -56 155.02 -56 154 C-55.38511719 153.74605469 -54.77023437 153.49210938 -54.13671875 153.23046875 C-53.32847656 152.88628906 -52.52023437 152.54210937 -51.6875 152.1875 C-50.88699219 151.85105469 -50.08648437 151.51460937 -49.26171875 151.16796875 C-45.46653018 149.20810453 -43.65677055 146.89552982 -42 143 C-41.69690815 140.72326818 -41.69690815 140.72326818 -41.73257446 138.2694397 C-41.71977951 136.84799904 -41.71977951 136.84799904 -41.70672607 135.39784241 C-41.70763245 134.36501633 -41.70853882 133.33219025 -41.70947266 132.26806641 C-41.70275543 131.17496658 -41.69603821 130.08186676 -41.68911743 128.9556427 C-41.67009988 125.33756989 -41.66621134 121.7196822 -41.6640625 118.1015625 C-41.65763732 115.5881645 -41.65090917 113.07476726 -41.64389038 110.56137085 C-41.6319083 105.29057615 -41.62812493 100.01982848 -41.62939453 94.74902344 C-41.63059569 88.66409633 -41.60949748 82.57952406 -41.5779072 76.49468672 C-41.54856464 70.63312519 -41.54141946 64.77170372 -41.54261398 58.91007614 C-41.54025302 56.41978888 -41.53140175 53.92949902 -41.51594925 51.43925858 C-41.49635922 47.95611355 -41.50210067 44.47388232 -41.51416016 40.99072266 C-41.49730164 39.44755623 -41.49730164 39.44755623 -41.48010254 37.87321472 C-41.53218261 31.9551867 -42.00559848 28.48170924 -46 24 C-48.52627489 22.66909583 -48.52627489 22.66909583 -51.25 22.125 C-52.14203125 21.90070313 -53.0340625 21.67640625 -53.953125 21.4453125 C-54.62859375 21.29835938 -55.3040625 21.15140625 -56 21 C-56 19.68 -56 18.36 -56 17 C-51.00586315 15.23852157 -46.01112475 13.47876232 -41.01586914 11.72045898 C-39.32365352 11.12455425 -37.63159102 10.52821445 -35.93969727 9.93139648 C-31.06935132 8.21355569 -26.19558798 6.506043 -21.31756592 4.81011963 C-19.06787603 4.02372649 -16.8231794 3.2242176 -14.57861328 2.42333984 C-13.23099819 1.95221577 -11.88319031 1.48164267 -10.53515625 1.01171875 C-9.36476807 0.59752686 -8.19437988 0.18333496 -6.98852539 -0.2434082 C-4.05185398 -0.98687236 -2.73787092 -1.19740479 0 0 Z " fill="#82AA11" transform="translate(546,279)"/>
<path d="M0 0 C2.23242645 1.67057415 4.35158174 3.41060533 6.453125 5.2421875 C7.33871094 5.98662109 7.33871094 5.98662109 8.2421875 6.74609375 C21.23581934 18.58275837 29.40529687 37.50640452 30.72460938 54.80102539 C30.81779299 58.45278235 30.8140413 62.08966185 30.765625 65.7421875 C30.76884766 66.95777344 30.77207031 68.17335938 30.77539062 69.42578125 C30.6491727 90.92872607 24.88457539 109.96419326 10.453125 126.2421875 C9.92203125 126.86738281 9.3909375 127.49257813 8.84375 128.13671875 C-2.153004 140.19504058 -21.41644784 148.39387911 -37.69091797 149.4453125 C-41.24945534 149.54639295 -44.79947511 149.56420086 -48.359375 149.5546875 C-49.55369141 149.57080078 -50.74800781 149.58691406 -51.97851562 149.60351562 C-72.63240401 149.6147589 -91.9297493 141.78610556 -106.546875 127.2421875 C-107.59681641 126.24445313 -107.59681641 126.24445313 -108.66796875 125.2265625 C-125.23936935 108.29982973 -128.0055323 84.31735046 -127.84724426 61.80606079 C-127.57157228 41.1201978 -120.39023304 23.66417409 -106.546875 8.2421875 C-77.99166914 -18.92605121 -32.45306942 -22.39859086 0 0 Z " fill="#FF7620" transform="translate(1424.546875,291.7578125)"/>
<path d="M0 0 C1.18980469 -0.020625 2.37960937 -0.04125 3.60546875 -0.0625 C18.40414841 -0.12719368 34.55881422 3.92829994 45.609375 14.4765625 C56.33945027 27.03185676 59.26079761 41.04033705 59.28271484 57.07104492 C59.28779556 57.90152847 59.29287628 58.73201202 59.29811096 59.58766174 C59.30873114 61.37344024 59.31738332 63.15923135 59.32423019 64.94502831 C59.33612249 67.77448119 59.35559636 70.60378841 59.37734985 73.43318176 C59.43865193 81.47159997 59.49309343 89.50999661 59.52636719 97.54858398 C59.54732205 102.48037835 59.5826167 107.41189507 59.62712479 112.34353065 C59.6412612 114.21693978 59.65000189 116.09039788 59.65317917 117.96385765 C59.65809364 120.58191411 59.68126035 123.19923253 59.70849609 125.81713867 C59.70548996 126.58559113 59.70248383 127.35404358 59.6993866 128.14578247 C59.77295476 132.91321962 60.59499314 136.20199379 63.125 140.25 C67.65149412 143.88502839 71.88928523 143.64268098 77.48046875 143.74609375 C78.35316406 143.91238281 79.22585938 144.07867187 80.125 144.25 C81.48828125 146.28515625 81.48828125 146.28515625 82.125 148.25 C75.26465234 155.9044715 67.26844933 161.49520467 56.74121094 162.47094727 C54.07437369 162.58993934 51.41939363 162.62118658 48.75 162.625 C47.85539062 162.64949219 46.96078125 162.67398438 46.0390625 162.69921875 C37.09549109 162.73821688 30.19998964 159.8778261 23.625 153.8203125 C19.75564501 149.7695815 17.65289847 145.59764466 16.125 140.25 C14.76375 141.425625 14.76375 141.425625 13.375 142.625 C12.73691406 143.16769531 12.09882813 143.71039063 11.44140625 144.26953125 C9.72964292 145.73304559 8.03105207 147.21199909 6.33984375 148.69921875 C-7.21573519 160.40074431 -19.74741685 164.46609145 -37.515625 163.48828125 C-47.32526036 162.49757304 -55.80373598 157.98592573 -62.875 151.25 C-63.44863281 150.71632813 -64.02226562 150.18265625 -64.61328125 149.6328125 C-72.06260154 141.90622223 -74.28827676 130.57036865 -74.1484375 120.15234375 C-73.13344797 109.37895484 -66.28593186 100.93318484 -58.3125 94.125 C-44.99324308 84.00477911 -29.05821086 79.33450682 -13 75.5625 C-11.72769531 75.25868408 -11.72769531 75.25868408 -10.4296875 74.94873047 C-1.99572164 73.05645407 6.54193534 72.16875945 15.125 71.25 C15.05524263 66.09412118 14.96687425 60.93898684 14.86254883 55.78369141 C14.82965639 54.0363809 14.80151836 52.28897323 14.77856445 50.54150391 C15.13154975 29.39779802 15.13154975 29.39779802 6.125 11.25 C0.69682545 7.61737841 -4.44664847 6.51232032 -10.875 7.25 C-15.6415231 8.99161421 -18.02788433 11.09842895 -20.875 15.25 C-21.73352597 17.81154972 -22.41923998 20.19407335 -23 22.8125 C-23.16757813 23.51632812 -23.33515625 24.22015625 -23.5078125 24.9453125 C-24.4944138 29.1923228 -25.24814236 33.43348029 -25.875 37.75 C-27.15027079 45.79401577 -29.82938232 50.89604162 -36.09375 56.12109375 C-40.77013364 59.08485444 -46.53775702 58.70300673 -51.875 58.25 C-57.10997217 56.6194349 -60.3651719 54.46179373 -63.875 50.25 C-66.97741752 43.91453686 -66.94475676 36.45856404 -65.22265625 29.68359375 C-60.91358801 19.04962707 -51.89361765 11.43874696 -41.625 6.7734375 C-27.73394839 1.27489624 -14.85537954 0.06396288 0 0 Z " fill="#81AA10" transform="translate(258.875,277.75)"/>
<path d="M0 0 C2.89644843 4.92318581 3.51162149 8.81723899 3.6875 14.375 C3.72166016 15.11105469 3.75582031 15.84710938 3.79101562 16.60546875 C3.87272789 18.40313853 3.93805781 20.20154046 4 22 C5.00353516 21.18208984 5.00353516 21.18208984 6.02734375 20.34765625 C16.83612301 11.86022555 29.33828865 3.74705865 43 1 C43.88558594 0.81824219 44.77117187 0.63648438 45.68359375 0.44921875 C49.93137353 -0.12615778 54.09342331 -0.18413398 58.375 -0.1875 C59.18710938 -0.19974609 59.99921875 -0.21199219 60.8359375 -0.22460938 C68.20037913 -0.24231236 74.55728531 0.97877257 81.1875 4.375 C81.98542969 4.77460938 82.78335937 5.17421875 83.60546875 5.5859375 C92.61491775 10.90636252 97.44647721 18.88275096 100.18334961 28.85693359 C102.69217174 38.84369006 102.55430827 48.90051896 102.51642036 59.13905716 C102.50363792 62.61196478 102.51521496 66.08409546 102.53245544 69.55697632 C102.55896426 75.66685714 102.5647576 81.7765425 102.56335449 87.88647461 C102.5611118 97.69858085 102.57524959 107.5104481 102.61894035 117.32246017 C102.62875998 120.73818435 102.62007752 124.15352822 102.61024475 127.56924438 C102.61638727 129.66026051 102.62329843 131.75127457 102.63110352 133.84228516 C102.62338425 134.78675507 102.61566498 135.73122498 102.60771179 136.70431519 C102.64763944 141.88634084 103.08485367 145.52294048 106 150 C107.87053661 151.48919916 107.87053661 151.48919916 110 152.3125 C111.0209375 152.77076172 111.0209375 152.77076172 112.0625 153.23828125 C113.68879187 153.87765003 115.34221355 154.44740452 117 155 C117 155.99 117 156.98 117 158 C91.92 158 66.84 158 41 158 C41 157.01 41 156.02 41 155 C41.67546875 154.70867187 42.3509375 154.41734375 43.046875 154.1171875 C43.93890625 153.70726562 44.8309375 153.29734375 45.75 152.875 C46.63171875 152.48054687 47.5134375 152.08609375 48.421875 151.6796875 C51.61768985 149.59756571 53.51931088 147.48196788 55 144 C55.57679053 140.28909519 55.53647069 136.62261283 55.50170898 132.87329102 C55.50711197 131.76199829 55.51251495 130.65070557 55.51808167 129.5057373 C55.53057208 125.83818801 55.51407369 122.17142325 55.49609375 118.50390625 C55.49624874 115.95092223 55.49773772 113.39793797 55.50050354 110.84495544 C55.50188772 105.49605001 55.4897624 100.14742019 55.46655273 94.79858398 C55.43995863 88.62732876 55.43819279 82.45644966 55.4499411 76.28515679 C55.46074709 70.33387916 55.45440669 64.38271562 55.44038582 58.43144035 C55.43587438 55.90571423 55.43553182 53.37997707 55.43945122 50.85424995 C55.44236701 47.32130524 55.42583708 43.78897103 55.40405273 40.25610352 C55.40855438 39.21536179 55.41305603 38.17462006 55.41769409 37.1023407 C55.35842685 31.30656475 54.87048331 27.08551188 52 22 C44.58339939 16.12852452 37.04694187 16.33848314 28 17 C24.65327408 17.86766968 21.95111031 19.22065408 19 21 C18.13375 21.5053125 17.2675 22.010625 16.375 22.53125 C14.66035783 23.54807268 12.95477735 24.58044436 11.26171875 25.6328125 C9.21335303 26.87103012 7.1457948 27.94415509 5 29 C5.06057219 43.76025218 5.13809865 58.52033431 5.23571491 73.28038979 C5.28064793 80.13401373 5.32006825 86.987586 5.34643555 93.84130859 C5.37189492 100.45498408 5.41281648 107.06844729 5.46318626 113.68198776 C5.47987671 116.20572423 5.49137738 118.7295005 5.49761391 121.25328445 C5.50723096 124.78710321 5.53526309 128.32033046 5.56762695 131.85400391 C5.56619186 132.89841644 5.56475677 133.94282898 5.5632782 135.01889038 C5.63329745 140.42167729 5.91881262 144.35564522 9 149 C12.08885772 151.92628626 14.98450769 153.62325978 19 155 C19 155.99 19 156.98 19 158 C-5.75 158 -30.5 158 -56 158 C-56 157.01 -56 156.02 -56 155 C-54.98679687 154.67128906 -54.98679687 154.67128906 -53.953125 154.3359375 C-48.15414039 152.27444875 -44.83027522 150.78360589 -42 145 C-41.05657804 142.16973411 -40.87242241 140.43461235 -40.86628723 137.50358582 C-40.86202225 136.58257584 -40.85775726 135.66156586 -40.85336304 134.71264648 C-40.85381622 133.70427734 -40.85426941 132.6959082 -40.85473633 131.65698242 C-40.85137772 130.59328934 -40.8480191 129.52959625 -40.84455872 128.43367004 C-40.83503846 124.90759115 -40.83310498 121.3815597 -40.83203125 117.85546875 C-40.82881914 115.40790283 -40.82545511 112.96033711 -40.82194519 110.51277161 C-40.81595104 105.3772436 -40.81410556 100.24173243 -40.81469727 95.10620117 C-40.81479884 88.52542588 -40.80115257 81.9447586 -40.78392506 75.3640089 C-40.77280584 70.30682377 -40.77077804 65.24966475 -40.77130699 60.19246864 C-40.77012653 57.76638734 -40.76570106 55.34030536 -40.75797462 52.91423607 C-40.74817761 49.51981425 -40.75105193 46.12562677 -40.75708008 42.73120117 C-40.74865082 41.2277565 -40.74865082 41.2277565 -40.74005127 39.69393921 C-40.76222325 34.78078321 -40.87204057 30.53992909 -43 26 C-45.26023857 24.67536658 -45.26023857 24.67536658 -47.9375 24.1875 C-49.25041016 23.86845703 -49.25041016 23.86845703 -50.58984375 23.54296875 C-51.38519531 23.36378906 -52.18054687 23.18460937 -53 23 C-53.99 22.67 -54.98 22.34 -56 22 C-56 20.68 -56 19.36 -56 18 C-48.67065846 15.4278498 -41.3379959 12.86534924 -34.00292969 10.30957031 C-31.50735968 9.4387508 -29.01256201 8.56571465 -26.51855469 7.69042969 C-22.93624784 6.43362991 -19.35125073 5.18479446 -15.765625 3.9375 C-14.64883362 3.54377197 -13.53204224 3.15004395 -12.38140869 2.74438477 C-11.34063171 2.38401123 -10.29985474 2.0236377 -9.22753906 1.65234375 C-8.31264709 1.33257568 -7.39775513 1.01280762 -6.45513916 0.68334961 C-4 0 -4 0 0 0 Z " fill="#FF7621" transform="translate(1166,278)"/>
<path d="M0 0 C13.49541064 10.18307283 22.63096965 25.17428836 25 42 C25.50174828 50.42721311 25.38792943 58.67242341 24 67 C-7.68 67 -39.36 67 -72 67 C-70.09701235 96.50641222 -70.09701235 96.50641222 -55.109375 121.47265625 C-42.02335065 130.94790721 -27.85097938 132.46597354 -12.2421875 130.53515625 C1.40341463 128.000973 10.32535334 121.46880312 20 112 C20.99 112.66 21.98 113.32 23 114 C21.64049441 122.29298409 13.39970912 130.83188958 7 136 C-13.53771824 150.51034441 -34.81660298 155.24933495 -59.8984375 151.34375 C-73.02152909 148.80971611 -85.01707592 142.91678655 -95 134 C-95.67417969 133.40703125 -96.34835937 132.8140625 -97.04296875 132.203125 C-106.39248695 123.45038455 -111.96714983 113.03602569 -116 101 C-116.350625 99.98035156 -116.70125 98.96070313 -117.0625 97.91015625 C-123.338734 78.42767987 -121.79536991 52.41911261 -113 34 C-112.54496094 33.04609375 -112.08992187 32.0921875 -111.62109375 31.109375 C-102.89104676 14.07745771 -88.48482787 0.43181045 -70.5 -6.3125 C-67.34737683 -7.30499248 -64.20469343 -8.19283283 -61 -9 C-59.80246094 -9.35578125 -58.60492187 -9.7115625 -57.37109375 -10.078125 C-38.07291289 -14.84305131 -16.4073969 -10.79602449 0 0 Z " fill="#FF7621" transform="translate(1069,289)"/>
<path d="M0 0 C0.95314893 3.34477842 0.98185169 6.25768142 0.83227539 9.73583984 C0.18759469 26.98726583 8.16073438 40.24894882 19.66821289 52.65380859 C23.59615696 56.74922574 27.84676155 60.33592826 32.3046875 63.84765625 C35.89537371 66.71500132 39.27214023 69.78904841 42.6640625 72.88671875 C44.7617099 74.78442317 46.90103782 76.6134993 49.0625 78.4375 C60.302921 88.32092852 69.63899906 100.19778352 73 115 C73.34675781 116.1859375 73.69351563 117.371875 74.05078125 118.59375 C75.33837618 123.77125603 75.34257972 128.8758512 75.3125 134.1875 C75.30686035 135.23687744 75.3012207 136.28625488 75.29541016 137.36743164 C75.02329611 155.2555626 72.50537657 173.00663639 64 189 C63.34 189 62.68 189 62 189 C61.8040625 188.12601563 61.608125 187.25203125 61.40625 186.3515625 C55.77337902 163.18880855 43.62033141 141.8985371 30.46826172 122.20849609 C27.86087827 118.28658212 25.31051215 114.32760133 22.75 110.375 C19.23976409 104.97045986 15.72129801 99.57141187 12.19140625 94.1796875 C5.00320814 83.19453044 -2.1077462 72.17355969 -9 61 C-0.64301718 85.43931605 12.72765407 107.75772825 25.72167969 129.93896484 C44.30722823 161.7187912 60.34999602 195.15776647 57 233 C56.67 233.99 56.34 234.98 56 236 C55.34 236 54.68 236 54 236 C53.85304688 235.33355469 53.70609375 234.66710937 53.5546875 233.98046875 C48.45945563 213.04316536 34.3869621 201.15479995 17 190 C-12.43131104 170.88313811 -34.06883747 151.06452071 -43 116 C-48.78743526 80.97859687 -37.8362877 50.74138672 -17.80078125 22.49365234 C-12.18942834 14.73730311 -6.1314483 7.34784853 0 0 Z " fill="#016939" transform="translate(667,6)"/>
<path d="M0 0 C51.81 0 103.62 0 157 0 C156.19189823 4.84861064 155.736653 7.00182846 153.515625 11.02734375 C152.99935547 11.97222656 152.48308594 12.91710937 151.95117188 13.890625 C151.38978516 14.89609375 150.82839844 15.9015625 150.25 16.9375 C149.66798828 17.99582031 149.08597656 19.05414063 148.48632812 20.14453125 C144.01702634 28.24604278 139.45884504 36.29776285 134.88452148 44.34033203 C130.36877384 52.29571113 126.00123077 60.32623488 121.65966797 68.37768555 C117.30836928 76.44486978 112.88001844 84.46571773 108.41210938 92.46875 C100.25882551 107.08376507 92.14464979 121.72054443 84.0625 136.375 C83.73193604 136.97434357 83.40137207 137.57368713 83.06079102 138.19119263 C79.68715289 144.30842372 76.31542862 150.42670687 72.94584656 156.5461731 C71.58236124 159.02202959 70.21820455 161.49751585 68.85397339 163.97296143 C67.9372261 165.6370468 67.02143463 167.30165865 66.10571289 168.96630859 C59.46695296 181.01272861 52.72786977 193.00320141 46 205 C55.62354444 204.93861158 65.2467967 204.86137879 74.87004757 204.76428509 C79.3392091 204.71968353 83.80828161 204.68040529 88.27758789 204.65356445 C92.59606297 204.62742905 96.91419361 204.58695537 101.2324543 204.53681374 C102.87450415 204.52021392 104.51661349 204.50865698 106.15873528 204.50238609 C122.30000621 204.47969339 122.30000621 204.47969339 135.90234375 196.5234375 C141.82912734 189.39363825 146.06389916 180.81360225 150.2734375 172.59375 C150.80710937 171.55927734 150.80710937 171.55927734 151.3515625 170.50390625 C152.019529 169.19601765 152.67388375 167.88106157 153.3125 166.55859375 C154.2109375 164.78125 154.2109375 164.78125 156 162 C158.11181641 161.32617188 158.11181641 161.32617188 160 161 C160.15755109 177.70768692 159.6191369 194.28330369 159 211 C104.88 211 50.76 211 -5 211 C-5 204.25396825 -5 204.25396825 -2.61328125 200.2265625 C-1.83368042 198.88404419 -1.83368042 198.88404419 -1.03833008 197.5144043 C-0.46880615 196.56090088 0.10071777 195.60739746 0.6875 194.625 C1.88747457 192.56239378 3.08532664 190.49855155 4.28125 188.43359375 C4.89871094 187.37253418 5.51617188 186.31147461 6.15234375 185.21826172 C9.09452291 180.09355167 11.89204679 174.89327367 14.6875 169.6875 C19.58709058 160.59675453 24.55396041 151.54815375 29.58789062 142.53125 C32.43937145 137.41988189 35.28190465 132.30353561 38.125 127.1875 C39.07802002 125.47276489 39.07802002 125.47276489 40.05029297 123.72338867 C45.05463027 114.71562854 50.03466867 105.69458679 55.00860596 96.67001343 C59.82212119 87.93720422 64.65309809 79.21434168 69.5 70.5 C74.76662677 61.02995893 80.01634893 51.55079108 85.25 42.0625 C85.86294922 40.95132813 86.47589844 39.84015625 87.10742188 38.6953125 C92.74621769 28.46790929 98.37294658 18.23386694 104 8 C95.43704788 7.90692329 86.87431053 7.83604565 78.31097603 7.79275131 C74.33376193 7.77196199 70.35689638 7.74380519 66.37988281 7.69824219 C62.53487647 7.65447206 58.69020333 7.63079796 54.84496689 7.62049103 C53.38506711 7.61315506 51.92518357 7.59883094 50.4654274 7.57707977 C40.70165052 7.43750803 32.28187371 7.86433935 24.3359375 14.0859375 C18.51702158 20.87853656 14.17442433 28.14635059 10 36 C9.32807162 37.23895928 8.65489972 38.47724498 7.98046875 39.71484375 C4.92580755 45.32362276 4.92580755 45.32362276 2 51 C0.68 51 -0.64 51 -2 51 C-2 33.98693313 -0.91828467 16.98826647 0 0 Z " fill="#FF7620" transform="translate(774,225)"/>
<path d="M0 0 C51.15 0 102.3 0 155 0 C157.32142857 40.625 157.32142857 40.625 157 53 C155.68 53 154.36 53 153 53 C152.67837891 52.37657715 152.35675781 51.7531543 152.02539062 51.11083984 C141.53661586 26.5190676 141.53661586 26.5190676 124 8 C121.11829847 7.53359753 121.11829847 7.53359753 118.01635742 7.56762695 C116.81910034 7.54768677 115.62184326 7.52774658 114.38830566 7.50720215 C113.13996948 7.50095825 111.8916333 7.49471436 110.60546875 7.48828125 C109.45067017 7.47164429 108.29587158 7.45500732 107.1060791 7.43786621 C102.80007058 7.38011387 98.4937509 7.34782619 94.1875 7.3125 C84.555625 7.209375 74.92375 7.10625 65 7 C65 37.69 65 68.38 65 100 C99.79135103 102.57592979 99.79135103 102.57592979 110 95 C111.72475659 93.0811923 111.72475659 93.0811923 113 90.9375 C113.48726563 90.1640625 113.97453125 89.390625 114.4765625 88.59375 C117.10142628 84.12475115 119.58346717 79.58455696 122 75 C123.32 75 124.64 75 126 75 C126 93.48 126 111.96 126 131 C121 130 121 130 119.71728516 128.51293945 C119.41097168 127.88605225 119.1046582 127.25916504 118.7890625 126.61328125 C118.43473145 125.92435791 118.08040039 125.23543457 117.71533203 124.52563477 C117.35552246 123.79530029 116.99571289 123.06496582 116.625 122.3125 C113.00284581 115.41066364 109.84898651 109.61632884 102 107 C99.19839498 106.8460737 96.41701575 106.74261955 93.61328125 106.68359375 C92.79627243 106.66281265 91.97926361 106.64203156 91.13749695 106.62062073 C88.52924966 106.55526921 85.92090225 106.49630727 83.3125 106.4375 C81.54360946 106.39430108 79.77472903 106.35068635 78.00585938 106.30664062 C73.67067537 106.19960257 69.33539071 106.09829456 65 106 C65.0381008 117.20542398 65.09752667 128.41051498 65.18390274 139.61567688 C65.22335006 144.81915517 65.25555208 150.02246493 65.27099609 155.22607422 C65.28618064 160.251322 65.3206584 165.27610635 65.36830902 170.30114746 C65.38310423 172.214762 65.39103994 174.12844271 65.39188385 176.04211426 C65.39426087 178.73039703 65.42139899 181.41740669 65.45410156 184.10546875 C65.4490712 184.89022079 65.44404083 185.67497284 65.43885803 186.48350525 C65.54283075 192.0362804 66.88842958 196.35983625 70 201 C73.41811123 203.70387903 77.18278854 204.87143811 81.3125 206.1875 C82.91544922 206.70376953 82.91544922 206.70376953 84.55078125 207.23046875 C85.35902344 207.48441406 86.16726562 207.73835937 87 208 C87 208.99 87 209.98 87 211 C58.29 211 29.58 211 0 211 C0.495 209.02 0.495 209.02 1 207 C3.14453125 205.9453125 3.14453125 205.9453125 5.8125 205.125 C9.49637632 203.7777538 10.8784714 203.13634916 13.5625 200.125 C16.01123525 194.80166249 16.12589981 189.6459021 16.13371277 183.84721375 C16.13597833 183.15014983 16.13824388 182.45308592 16.14057809 181.73489887 C16.14688164 179.41138358 16.14609108 177.08792716 16.14526367 174.7644043 C16.14825745 173.09341354 16.15166048 171.42242348 16.15544128 169.75143433 C16.16426346 165.22033439 16.16661865 160.68925336 16.16725707 156.15814567 C16.16796861 153.32478181 16.1701049 150.49142274 16.17275429 147.65806007 C16.18200195 137.76625896 16.18608992 127.87447131 16.18530273 117.98266602 C16.18470216 108.77367581 16.19525147 99.56474423 16.2110464 90.35576886 C16.22413824 82.43964637 16.22948594 74.523543 16.22884732 66.60740978 C16.22859281 61.88381279 16.23141817 57.16026791 16.24202538 52.43668175 C16.25173397 47.9920404 16.25176664 43.54750069 16.24450874 39.10285568 C16.24346632 37.47633401 16.24580538 35.84980592 16.2518692 34.22329521 C17.06326009 20.84110383 17.06326009 20.84110383 12.265625 9.09765625 C11.60046875 8.75605469 10.9353125 8.41445312 10.25 8.0625 C9.54359375 7.68867188 8.8371875 7.31484375 8.109375 6.9296875 C5.45148695 5.75824795 2.80115308 4.7703171 0 4 C0 2.68 0 1.36 0 0 Z " fill="#82AA11" transform="translate(11,225)"/>
<path d="M0 0 C2.66697579 2.66697579 2.4685981 4.37636337 2.8515625 8.1015625 C2.98046875 9.31328125 3.109375 10.525 3.2421875 11.7734375 C3.36851562 13.04445313 3.49484375 14.31546875 3.625 15.625 C3.82609375 17.543125 3.82609375 17.543125 4.03125 19.5 C4.36201973 22.66593888 4.68457756 25.83250128 5 29 C6.96272398 26.55687306 8.91320205 24.1161728 10.7890625 21.60546875 C18.58942929 11.33221972 29.9437858 0.84812085 43.15869141 -1.36083984 C50.25526999 -2.03810668 58.21224055 -2.26345035 64.42578125 1.66015625 C69.48637984 5.96731584 73.70489378 10.63885513 74.30078125 17.42578125 C74.34510569 32.12671973 74.34510569 32.12671973 68.625 38.75 C62.48816953 44.0101404 57.52502335 45.24633862 49.546875 44.890625 C41.45400592 43.8217555 35.43523419 39.18619236 30.3203125 32.953125 C29.84335937 32.32921875 29.36640625 31.7053125 28.875 31.0625 C26.76244507 28.45920993 25.24934945 27.40990296 21.9375 26.75 C17.99852297 26.65186199 17.99852297 26.65186199 15.375 28.875 C8.3881552 37.55284946 8.3881552 37.55284946 5.85282898 48.04084778 C5.84567368 48.86088791 5.83851837 49.68092804 5.83114624 50.52581787 C5.82845734 51.42197815 5.82576843 52.31813843 5.82299805 53.24145508 C5.81642685 54.18810532 5.80985565 55.13475555 5.80308533 56.11009216 C5.78335524 59.24657265 5.77169094 62.38300528 5.76171875 65.51953125 C5.75764322 66.59048223 5.7535677 67.66143322 5.74936867 68.76483727 C5.72851014 74.43217145 5.71420691 80.09948143 5.70483398 85.7668457 C5.6937642 91.6213378 5.65935685 97.47545038 5.61966228 103.32980824 C5.59352442 107.83111785 5.5851447 112.3323366 5.58155251 116.83371544 C5.57668001 118.99187473 5.56504723 121.15002979 5.54651451 123.30811501 C5.52218162 126.32917046 5.5230775 129.34923799 5.5300293 132.37036133 C5.51081421 133.70549271 5.51081421 133.70549271 5.49121094 135.06759644 C5.53694305 140.52411012 6.32627131 143.69076491 10 148 C12.31528135 149.4660882 12.31528135 149.4660882 14.875 150.25 C15.74640625 150.559375 16.6178125 150.86875 17.515625 151.1875 C18.33546875 151.455625 19.1553125 151.72375 20 152 C21.19625 152.4125 22.3925 152.825 23.625 153.25 C24.800625 153.62125 24.800625 153.62125 26 154 C26 154.99 26 155.98 26 157 C-1.39 157 -28.78 157 -57 157 C-57 156.01 -57 155.02 -57 154 C-55.3962669 153.35309078 -53.79199694 152.70751236 -52.1875 152.0625 C-50.84751953 151.52302734 -50.84751953 151.52302734 -49.48046875 150.97265625 C-47.6729091 150.26386514 -45.84192591 149.6139753 -44 149 C-42.26268543 145.6527646 -41.74855844 142.84441005 -41.73930359 139.10449219 C-41.73221878 138.1456311 -41.72513397 137.18677002 -41.71783447 136.19885254 C-41.72031189 135.15869995 -41.72278931 134.11854736 -41.7253418 133.046875 C-41.72023087 131.94226929 -41.71511993 130.83766357 -41.70985413 129.69958496 C-41.69595818 126.04966814 -41.69691474 122.39994012 -41.69921875 118.75 C-41.69533224 116.21321543 -41.69099767 113.67643151 -41.68623352 111.13964844 C-41.6787716 105.82354352 -41.6789244 100.5075079 -41.68432617 95.19140625 C-41.69036925 89.05139763 -41.67804388 82.91161797 -41.6567561 76.77164841 C-41.63700649 70.85723442 -41.63396733 64.94289131 -41.63749123 59.02844238 C-41.63697737 56.51500917 -41.63172767 54.00157235 -41.62167931 51.48815918 C-41.609361 47.97630084 -41.61607906 44.46497464 -41.62768555 40.953125 C-41.62004181 39.91297241 -41.61239807 38.87281982 -41.60452271 37.80114746 C-41.5910087 30.87348405 -41.5910087 30.87348405 -45 25 C-48.91736902 22.96877162 -52.63946695 21.66068683 -57 21 C-57 19.68 -57 18.36 -57 17 C-49.5302946 14.40340179 -42.05504683 11.82328448 -34.57568359 9.25463867 C-32.03063488 8.37974008 -29.48748774 7.49960619 -26.94580078 6.61499023 C-23.29533572 5.34665659 -19.64043422 4.09194575 -15.984375 2.83984375 C-14.84570984 2.44095444 -13.70704468 2.04206512 -12.53387451 1.63108826 C-11.47307678 1.27063919 -10.41227905 0.91019012 -9.31933594 0.53881836 C-7.92035065 0.05583534 -7.92035065 0.05583534 -6.49310303 -0.43690491 C-3.83539406 -1.03717808 -2.508024 -1.00902941 0 0 Z " fill="#82AA11" transform="translate(405,279)"/>
<path d="M0 0 C16.81697804 16.94247787 13.4407543 50.85546541 13.4369812 72.83462524 C13.38207317 85.18042785 12.9654418 97.38343549 11.3125 109.625 C11.16417725 110.72948486 11.01585449 111.83396973 10.86303711 112.97192383 C9.23118837 123.19110753 6.10251364 133.40833027 -1.7265625 140.58203125 C-9.21184908 145.43360589 -18.40859746 145.36580234 -27 144 C-33.33134076 141.88185072 -37.85875101 138.18741446 -40.984375 132.27734375 C-41.31953125 131.52582031 -41.6546875 130.77429688 -42 130 C-42.35578125 129.21753906 -42.7115625 128.43507813 -43.078125 127.62890625 C-49.85693452 110.20129521 -49.284535 90.76066718 -49.3125 72.375 C-49.31608521 71.42803253 -49.31967041 70.48106506 -49.32336426 69.50540161 C-49.43572371 14.20960884 -49.43572371 14.20960884 -37.26171875 1.1328125 C-26.6815571 -8.33722512 -11.14493827 -8.82307613 0 0 Z " fill="#FFFDFD" transform="translate(1394,290)"/>
<path d="M0 0 C2.09419851 2.09419851 2.526608 3.10969835 3.40234375 5.859375 C3.65153564 6.63885498 3.90072754 7.41833496 4.1574707 8.22143555 C4.41488037 9.05586182 4.67229004 9.89028809 4.9375 10.75 C5.20328857 11.60311768 5.46907715 12.45623535 5.74291992 13.33520508 C13.68778669 39.34301026 15.91057498 65.59092824 3.20068359 90.35717773 C-5.64537352 106.74887707 -20.59556292 120.08690064 -38.5 125.6875 C-45.76758361 127.84407158 -53.17232168 129.4821484 -60.55249023 131.20043945 C-73.93089206 134.3488061 -89.09495745 138.85119777 -97 151 C-98.83601109 154.24942494 -98.83601109 154.24942494 -100 157 C-102.38792328 150.96260907 -98.38139581 143.67461194 -96 138 C-91.847466 129.18207823 -86.40288606 121.33664028 -80 114 C-79.278125 113.16855469 -78.55625 112.33710938 -77.8125 111.48046875 C-70.41301367 103.11750763 -62.73694209 95.43533961 -54.01953125 88.44921875 C-50.00333865 85.19158258 -46.09705564 81.813685 -42.18603516 78.43115234 C-38.74978255 75.46880102 -35.25779577 72.61347559 -31.6875 69.8125 C-23.52118509 63.21568705 -16.32871513 55.49653845 -9 48 C-11.72734276 49.28477205 -14.06640084 50.69357229 -16.44140625 52.546875 C-17.0974585 53.05468506 -17.75351074 53.56249512 -18.42944336 54.08569336 C-19.13335205 54.63491455 -19.83726074 55.18413574 -20.5625 55.75 C-26.79258947 60.56700998 -33.07997854 65.29013149 -39.4375 69.9375 C-68.97651642 91.59194646 -68.97651642 91.59194646 -93 119 C-93.33 119 -93.66 119 -94 119 C-94.41385955 96.81252946 -91.7459655 73.34511098 -75.9375 56.1875 C-66.05468012 47.14471981 -54.36359195 42.85772656 -41.98193359 38.35766602 C-27.52758415 33.07062663 -12.08659113 27.25586386 -3.99609375 13.23046875 C-2.10110352 8.9871769 -1.02218432 4.52088027 0 0 Z " fill="#87BD43" transform="translate(844,51)"/>
<path d="M0 0 C6.65228467 3.86844815 9.79879832 11.30983827 11.76416016 18.46801758 C13.21685799 25.25230325 13.42379581 31.76955043 13.34375 38.69140625 C13.34310547 39.74650391 13.34246094 40.80160156 13.34179688 41.88867188 C13.30360313 48.78476504 12.78652695 55.32085981 12.15625 62.25390625 C-5.99375 62.25390625 -24.14375 62.25390625 -42.84375 62.25390625 C-42.84375 16.36174939 -42.84375 16.36174939 -29.8515625 3.2421875 C-20.6566409 -3.92291178 -10.62988625 -4.82717936 0 0 Z " fill="#FFFDFC" transform="translate(1039.84375,286.74609375)"/>
<path d="M0 0 C0.33080135 7.66682462 0.55772917 15.33180093 0.71411133 23.00415039 C0.77931821 25.61096949 0.86791339 28.2173161 0.98071289 30.82250977 C1.86791609 51.84641544 1.86791609 51.84641544 -1.22125244 57.06182861 C-4.54909812 60.63189387 -8.40115106 62.40784951 -13 64 C-14.06581299 64.3815625 -15.13162598 64.763125 -16.22973633 65.15625 C-22.03385634 66.92403345 -28.72082559 67.15674814 -34.48046875 65.125 C-41.25239894 61.26258578 -43.92226385 55.34250826 -46 48 C-47.10502277 35.83190038 -46.05209352 25.6434362 -38.25 15.8125 C-28.74076431 6.02266391 -13.66746065 0 0 0 Z " fill="#FDFEFC" transform="translate(274,355)"/>
<path d="M0 0 C2.92824652 2.92824652 4.27239967 5.2979993 6 9 C5.01 9.33 4.02 9.66 3 10 C2.01 6.7 1.02 3.4 0 0 Z " fill="#CEE2D8" transform="translate(657,66)"/>
</svg>
